<svg version="1.1" xmlns="http://www.w3.org/2000/svg" xmlns:xlink="http://www.w3.org/1999/xlink" width="43.501" height="54.672" viewBox="0,0,43.501,54.672"><defs><linearGradient x1="218.24993" y1="180.0002" x2="261.75045" y2="180.0002" gradientUnits="userSpaceOnUse" id="color-1"><stop offset="0.012" stop-color="#a7a9ac"/><stop offset="1" stop-color="#414042"/></linearGradient><linearGradient x1="219.88149" y1="179.9993" x2="260.11847" y2="179.9993" gradientUnits="userSpaceOnUse" id="color-2"><stop offset="0" stop-color="#d1d2d3"/><stop offset="1" stop-color="#a4a5a8"/></linearGradient></defs><g transform="translate(-218.2495,-152.664)"><g data-paper-data="{&quot;isPaintingLayer&quot;:true}" fill-rule="nonzero" stroke="none" stroke-width="1" stroke-linecap="butt" stroke-linejoin="miter" stroke-miterlimit="10" stroke-dasharray="" stroke-dashoffset="0" style="mix-blend-mode: normal"><path d="M261.7505,198.731c0,4.752 -1.84232,8.605 -4.11343,8.605h-35.27462c-2.27159,0 -4.11295,-3.854 -4.11295,-8.605v-37.463c0,-4.752 1.84136,-8.604 4.11295,-8.604h35.27414c2.27254,0 4.11343,3.852 4.11343,8.604v37.463z" fill="url(#color-1)"/><path d="M260.11804,161.268v37.462c0,2.862 -1.11237,5.19 -2.48144,5.19h-35.27414c-1.36764,0 -2.48096,-2.328 -2.48096,-5.19v-37.463c0,-2.862 1.11333,-5.19 2.48096,-5.19h35.27414c1.36907,0 2.48144,2.329 2.48144,5.191z" fill="url(#color-2)"/></g></g></svg>